<?xml version="1.0" encoding="UTF-8" standalone="no"?>
<!DOCTYPE svg PUBLIC "-//W3C//DTD SVG 1.1//EN"
 "http://www.w3.org/Graphics/SVG/1.1/DTD/svg11.dtd">
<!-- Generated by graphviz version 2.47.0 (20210316.0004)
 -->
<!-- Title: dbml Pages: 1 -->
<svg width="1359pt" height="2230pt"
 viewBox="0.00 0.00 1359.22 2229.92" xmlns="http://www.w3.org/2000/svg" xmlns:xlink="http://www.w3.org/1999/xlink">
<g id="graph0" class="graph" transform="scale(1 1) rotate(0) translate(4 2225.92)">
<title>dbml</title>
<!-- users -->
<g id="users" class="node">
<title>users</title>
<ellipse fill="none" stroke="black" stroke-width="0" cx="359.21" cy="-1020.96" rx="359.42" ry="342.48"/>
<polygon fill="#1d71b8" stroke="transparent" points="107.21,-1200.96 107.21,-1260.96 611.21,-1260.96 611.21,-1200.96 107.21,-1200.96"/>
<polygon fill="none" stroke="#29235c" points="107.21,-1200.96 107.21,-1260.96 611.21,-1260.96 611.21,-1200.96 107.21,-1200.96"/>
<text text-anchor="start" x="257.85" y="-1222.16" font-family="Helvetica,sans-Serif" font-weight="bold" font-size="32.00" fill="#ffffff"> &#160;&#160;&#160;&#160;&#160;&#160;users &#160;&#160;&#160;&#160;&#160;&#160;</text>
<polygon fill="#e7e2dd" stroke="transparent" points="107.21,-1140.96 107.21,-1200.96 611.21,-1200.96 611.21,-1140.96 107.21,-1140.96"/>
<polygon fill="none" stroke="#29235c" points="107.21,-1140.96 107.21,-1200.96 611.21,-1200.96 611.21,-1140.96 107.21,-1140.96"/>
<text text-anchor="start" x="118.21" y="-1162.16" font-family="Helvetica,sans-Serif" font-weight="bold" font-size="32.00" fill="#29235c">id</text>
<text text-anchor="start" x="143.1" y="-1162.16" font-family="Helvetica,sans-Serif" font-size="32.00" fill="#29235c"> &#160;&#160;&#160;</text>
<text text-anchor="start" x="502.41" y="-1162.16" font-family="Helvetica,sans-Serif" font-style="italic" font-size="32.00" fill="#29235c">integer</text>
<polygon fill="#e7e2dd" stroke="transparent" points="107.21,-1080.96 107.21,-1140.96 611.21,-1140.96 611.21,-1080.96 107.21,-1080.96"/>
<polygon fill="none" stroke="#29235c" points="107.21,-1080.96 107.21,-1140.96 611.21,-1140.96 611.21,-1080.96 107.21,-1080.96"/>
<text text-anchor="start" x="118.21" y="-1101.16" font-family="Helvetica,sans-Serif" font-size="32.00" fill="#29235c">auth0id &#160;&#160;&#160;</text>
<text text-anchor="start" x="509.54" y="-1102.16" font-family="Helvetica,sans-Serif" font-style="italic" font-size="32.00" fill="#29235c">text</text>
<text text-anchor="start" x="561.12" y="-1102.16" font-family="Helvetica,sans-Serif" font-size="32.00" fill="#29235c"> </text>
<text text-anchor="start" x="570.01" y="-1102.16" font-family="Helvetica,sans-Serif" font-weight="bold" font-size="32.00" fill="#29235c">(!)</text>
<polygon fill="#e7e2dd" stroke="transparent" points="107.21,-1020.96 107.21,-1080.96 611.21,-1080.96 611.21,-1020.96 107.21,-1020.96"/>
<polygon fill="none" stroke="#29235c" points="107.21,-1020.96 107.21,-1080.96 611.21,-1080.96 611.21,-1020.96 107.21,-1020.96"/>
<text text-anchor="start" x="118.21" y="-1041.16" font-family="Helvetica,sans-Serif" font-size="32.00" fill="#29235c">best_reaction_time &#160;&#160;&#160;</text>
<text text-anchor="start" x="502.41" y="-1042.16" font-family="Helvetica,sans-Serif" font-style="italic" font-size="32.00" fill="#29235c">integer</text>
<polygon fill="#e7e2dd" stroke="transparent" points="107.21,-960.96 107.21,-1020.96 611.21,-1020.96 611.21,-960.96 107.21,-960.96"/>
<polygon fill="none" stroke="#29235c" points="107.21,-960.96 107.21,-1020.96 611.21,-1020.96 611.21,-960.96 107.21,-960.96"/>
<text text-anchor="start" x="118.21" y="-981.16" font-family="Helvetica,sans-Serif" font-size="32.00" fill="#29235c">best_memory_test &#160;&#160;&#160;</text>
<text text-anchor="start" x="502.41" y="-982.16" font-family="Helvetica,sans-Serif" font-style="italic" font-size="32.00" fill="#29235c">integer</text>
<polygon fill="#e7e2dd" stroke="transparent" points="107.21,-900.96 107.21,-960.96 611.21,-960.96 611.21,-900.96 107.21,-900.96"/>
<polygon fill="none" stroke="#29235c" points="107.21,-900.96 107.21,-960.96 611.21,-960.96 611.21,-900.96 107.21,-900.96"/>
<text text-anchor="start" x="117.77" y="-921.16" font-family="Helvetica,sans-Serif" font-size="32.00" fill="#29235c">best_sequence_memory &#160;&#160;&#160;</text>
<text text-anchor="start" x="502.81" y="-922.16" font-family="Helvetica,sans-Serif" font-style="italic" font-size="32.00" fill="#29235c">integer</text>
<polygon fill="#e7e2dd" stroke="transparent" points="107.21,-840.96 107.21,-900.96 611.21,-900.96 611.21,-840.96 107.21,-840.96"/>
<polygon fill="none" stroke="#29235c" points="107.21,-840.96 107.21,-900.96 611.21,-900.96 611.21,-840.96 107.21,-840.96"/>
<text text-anchor="start" x="118.21" y="-861.16" font-family="Helvetica,sans-Serif" font-size="32.00" fill="#29235c">best_aim_trainer &#160;&#160;&#160;</text>
<text text-anchor="start" x="502.41" y="-862.16" font-family="Helvetica,sans-Serif" font-style="italic" font-size="32.00" fill="#29235c">integer</text>
<polygon fill="#e7e2dd" stroke="transparent" points="107.21,-780.96 107.21,-840.96 611.21,-840.96 611.21,-780.96 107.21,-780.96"/>
<polygon fill="none" stroke="#29235c" points="107.21,-780.96 107.21,-840.96 611.21,-840.96 611.21,-780.96 107.21,-780.96"/>
<text text-anchor="start" x="118.21" y="-801.16" font-family="Helvetica,sans-Serif" font-size="32.00" fill="#29235c">best_typing_test &#160;&#160;&#160;</text>
<text text-anchor="start" x="502.41" y="-802.16" font-family="Helvetica,sans-Serif" font-style="italic" font-size="32.00" fill="#29235c">integer</text>
<polygon fill="none" stroke="#29235c" stroke-width="2" points="106.21,-779.96 106.21,-1261.96 612.21,-1261.96 612.21,-779.96 106.21,-779.96"/>
</g>
<!-- reaction_time -->
<g id="reaction_time" class="node">
<title>reaction_time</title>
<ellipse fill="none" stroke="black" stroke-width="0" cx="1052.82" cy="-2006.96" rx="241.66" ry="214.92"/>
<polygon fill="#1d71b8" stroke="transparent" points="883.82,-2096.96 883.82,-2156.96 1221.82,-2156.96 1221.82,-2096.96 883.82,-2096.96"/>
<polygon fill="none" stroke="#29235c" points="883.82,-2096.96 883.82,-2156.96 1221.82,-2156.96 1221.82,-2096.96 883.82,-2096.96"/>
<text text-anchor="start" x="894.56" y="-2118.16" font-family="Helvetica,sans-Serif" font-weight="bold" font-size="32.00" fill="#ffffff"> &#160;&#160;&#160;&#160;&#160;&#160;reaction_time &#160;&#160;&#160;&#160;&#160;&#160;</text>
<polygon fill="#e7e2dd" stroke="transparent" points="883.82,-2036.96 883.82,-2096.96 1221.82,-2096.96 1221.82,-2036.96 883.82,-2036.96"/>
<polygon fill="none" stroke="#29235c" points="883.82,-2036.96 883.82,-2096.96 1221.82,-2096.96 1221.82,-2036.96 883.82,-2036.96"/>
<text text-anchor="start" x="894.82" y="-2058.16" font-family="Helvetica,sans-Serif" font-weight="bold" font-size="32.00" fill="#29235c">id</text>
<text text-anchor="start" x="919.71" y="-2058.16" font-family="Helvetica,sans-Serif" font-size="32.00" fill="#29235c"> &#160;&#160;&#160;</text>
<text text-anchor="start" x="1113.02" y="-2058.16" font-family="Helvetica,sans-Serif" font-style="italic" font-size="32.00" fill="#29235c">integer</text>
<polygon fill="#e7e2dd" stroke="transparent" points="883.82,-1976.96 883.82,-2036.96 1221.82,-2036.96 1221.82,-1976.96 883.82,-1976.96"/>
<polygon fill="none" stroke="#29235c" points="883.82,-1976.96 883.82,-2036.96 1221.82,-2036.96 1221.82,-1976.96 883.82,-1976.96"/>
<text text-anchor="start" x="894.82" y="-1997.16" font-family="Helvetica,sans-Serif" font-size="32.00" fill="#29235c">user_id &#160;&#160;&#160;</text>
<text text-anchor="start" x="1073.93" y="-1998.16" font-family="Helvetica,sans-Serif" font-style="italic" font-size="32.00" fill="#29235c">integer</text>
<text text-anchor="start" x="1171.73" y="-1998.16" font-family="Helvetica,sans-Serif" font-size="32.00" fill="#29235c"> </text>
<text text-anchor="start" x="1180.62" y="-1998.16" font-family="Helvetica,sans-Serif" font-weight="bold" font-size="32.00" fill="#29235c">(!)</text>
<polygon fill="#e7e2dd" stroke="transparent" points="883.82,-1916.96 883.82,-1976.96 1221.82,-1976.96 1221.82,-1916.96 883.82,-1916.96"/>
<polygon fill="none" stroke="#29235c" points="883.82,-1916.96 883.82,-1976.96 1221.82,-1976.96 1221.82,-1916.96 883.82,-1916.96"/>
<text text-anchor="start" x="894.82" y="-1937.16" font-family="Helvetica,sans-Serif" font-size="32.00" fill="#29235c">score &#160;&#160;&#160;</text>
<text text-anchor="start" x="1111.26" y="-1938.16" font-family="Helvetica,sans-Serif" font-style="italic" font-size="32.00" fill="#29235c">float</text>
<text text-anchor="start" x="1171.73" y="-1938.16" font-family="Helvetica,sans-Serif" font-size="32.00" fill="#29235c"> </text>
<text text-anchor="start" x="1180.62" y="-1938.16" font-family="Helvetica,sans-Serif" font-weight="bold" font-size="32.00" fill="#29235c">(!)</text>
<polygon fill="#e7e2dd" stroke="transparent" points="883.82,-1856.96 883.82,-1916.96 1221.82,-1916.96 1221.82,-1856.96 883.82,-1856.96"/>
<polygon fill="none" stroke="#29235c" points="883.82,-1856.96 883.82,-1916.96 1221.82,-1916.96 1221.82,-1856.96 883.82,-1856.96"/>
<text text-anchor="start" x="894.82" y="-1877.16" font-family="Helvetica,sans-Serif" font-size="32.00" fill="#29235c">timestamp &#160;&#160;&#160;</text>
<text text-anchor="start" x="1111.29" y="-1878.16" font-family="Helvetica,sans-Serif" font-style="italic" font-size="32.00" fill="#29235c">time</text>
<text text-anchor="start" x="1171.73" y="-1878.16" font-family="Helvetica,sans-Serif" font-size="32.00" fill="#29235c"> </text>
<text text-anchor="start" x="1180.62" y="-1878.16" font-family="Helvetica,sans-Serif" font-weight="bold" font-size="32.00" fill="#29235c">(!)</text>
<polygon fill="none" stroke="#29235c" stroke-width="2" points="882.82,-1855.96 882.82,-2157.96 1222.82,-2157.96 1222.82,-1855.96 882.82,-1855.96"/>
</g>
<!-- users&#45;&gt;reaction_time -->
<!-- users&#45;&gt;reaction_time -->
<g id="edge2" class="edge">
<title>users:e&#45;&gt;reaction_time:w</title>
<path fill="none" stroke="#29235c" stroke-width="3" d="M612.21,-1170.96C891.46,-1170.96 652.3,-1523.06 754.42,-1782.96 795.12,-1886.53 769.72,-1999.87 872.79,-2006.64"/>
<polygon fill="#29235c" stroke="#29235c" stroke-width="3" points="872.71,-2010.14 882.82,-2006.96 872.94,-2003.14 872.71,-2010.14"/>
<text text-anchor="middle" x="876.6" y="-2016.56" font-family="Helvetica,sans-Serif" font-size="32.00" fill="#29235c">*</text>
<text text-anchor="middle" x="603.32" y="-1180.56" font-family="Helvetica,sans-Serif" font-size="32.00" fill="#29235c">1</text>
</g>
<!-- users&#45;&gt;reaction_time -->
<!-- users&#45;&gt;reaction_time -->
<g id="edge12" class="edge">
<title>users:e&#45;&gt;reaction_time:w</title>
<path fill="none" stroke="#29235c" stroke-width="3" d="M612.21,-1050.96C777.92,-1050.96 704.15,-1625.06 754.42,-1782.96 795.38,-1911.6 746.88,-2059.25 872.63,-2066.67"/>
<polygon fill="#29235c" stroke="#29235c" stroke-width="3" points="872.72,-2070.17 882.82,-2066.96 872.92,-2063.18 872.72,-2070.17"/>
<text text-anchor="middle" x="873.93" y="-2076.56" font-family="Helvetica,sans-Serif" font-size="32.00" fill="#29235c">1</text>
<text text-anchor="middle" x="603.32" y="-1060.56" font-family="Helvetica,sans-Serif" font-size="32.00" fill="#29235c">1</text>
</g>
<!-- memory_test -->
<g id="memory_test" class="node">
<title>memory_test</title>
<ellipse fill="none" stroke="black" stroke-width="0" cx="1052.82" cy="-1558.96" rx="236.76" ry="214.92"/>
<polygon fill="#1d71b8" stroke="transparent" points="887.82,-1648.96 887.82,-1708.96 1218.82,-1708.96 1218.82,-1648.96 887.82,-1648.96"/>
<polygon fill="none" stroke="#29235c" points="887.82,-1648.96 887.82,-1708.96 1218.82,-1708.96 1218.82,-1648.96 887.82,-1648.96"/>
<text text-anchor="start" x="898.62" y="-1670.16" font-family="Helvetica,sans-Serif" font-weight="bold" font-size="32.00" fill="#ffffff"> &#160;&#160;&#160;&#160;&#160;&#160;memory_test &#160;&#160;&#160;&#160;&#160;&#160;</text>
<polygon fill="#e7e2dd" stroke="transparent" points="887.82,-1588.96 887.82,-1648.96 1218.82,-1648.96 1218.82,-1588.96 887.82,-1588.96"/>
<polygon fill="none" stroke="#29235c" points="887.82,-1588.96 887.82,-1648.96 1218.82,-1648.96 1218.82,-1588.96 887.82,-1588.96"/>
<text text-anchor="start" x="898.82" y="-1610.16" font-family="Helvetica,sans-Serif" font-weight="bold" font-size="32.00" fill="#29235c">id</text>
<text text-anchor="start" x="923.71" y="-1610.16" font-family="Helvetica,sans-Serif" font-size="32.00" fill="#29235c"> &#160;&#160;&#160;</text>
<text text-anchor="start" x="1110.02" y="-1610.16" font-family="Helvetica,sans-Serif" font-style="italic" font-size="32.00" fill="#29235c">integer</text>
<polygon fill="#e7e2dd" stroke="transparent" points="887.82,-1528.96 887.82,-1588.96 1218.82,-1588.96 1218.82,-1528.96 887.82,-1528.96"/>
<polygon fill="none" stroke="#29235c" points="887.82,-1528.96 887.82,-1588.96 1218.82,-1588.96 1218.82,-1528.96 887.82,-1528.96"/>
<text text-anchor="start" x="898.82" y="-1549.16" font-family="Helvetica,sans-Serif" font-size="32.00" fill="#29235c">user_id &#160;&#160;&#160;</text>
<text text-anchor="start" x="1070.93" y="-1550.16" font-family="Helvetica,sans-Serif" font-style="italic" font-size="32.00" fill="#29235c">integer</text>
<text text-anchor="start" x="1168.73" y="-1550.16" font-family="Helvetica,sans-Serif" font-size="32.00" fill="#29235c"> </text>
<text text-anchor="start" x="1177.62" y="-1550.16" font-family="Helvetica,sans-Serif" font-weight="bold" font-size="32.00" fill="#29235c">(!)</text>
<polygon fill="#e7e2dd" stroke="transparent" points="887.82,-1468.96 887.82,-1528.96 1218.82,-1528.96 1218.82,-1468.96 887.82,-1468.96"/>
<polygon fill="none" stroke="#29235c" points="887.82,-1468.96 887.82,-1528.96 1218.82,-1528.96 1218.82,-1468.96 887.82,-1468.96"/>
<text text-anchor="start" x="898.82" y="-1489.16" font-family="Helvetica,sans-Serif" font-size="32.00" fill="#29235c">score &#160;&#160;&#160;</text>
<text text-anchor="start" x="1070.93" y="-1490.16" font-family="Helvetica,sans-Serif" font-style="italic" font-size="32.00" fill="#29235c">integer</text>
<text text-anchor="start" x="1168.73" y="-1490.16" font-family="Helvetica,sans-Serif" font-size="32.00" fill="#29235c"> </text>
<text text-anchor="start" x="1177.62" y="-1490.16" font-family="Helvetica,sans-Serif" font-weight="bold" font-size="32.00" fill="#29235c">(!)</text>
<polygon fill="#e7e2dd" stroke="transparent" points="887.82,-1408.96 887.82,-1468.96 1218.82,-1468.96 1218.82,-1408.96 887.82,-1408.96"/>
<polygon fill="none" stroke="#29235c" points="887.82,-1408.96 887.82,-1468.96 1218.82,-1468.96 1218.82,-1408.96 887.82,-1408.96"/>
<text text-anchor="start" x="898.82" y="-1429.16" font-family="Helvetica,sans-Serif" font-size="32.00" fill="#29235c">timestamp &#160;&#160;&#160;</text>
<text text-anchor="start" x="1108.29" y="-1430.16" font-family="Helvetica,sans-Serif" font-style="italic" font-size="32.00" fill="#29235c">time</text>
<text text-anchor="start" x="1168.73" y="-1430.16" font-family="Helvetica,sans-Serif" font-size="32.00" fill="#29235c"> </text>
<text text-anchor="start" x="1177.62" y="-1430.16" font-family="Helvetica,sans-Serif" font-weight="bold" font-size="32.00" fill="#29235c">(!)</text>
<polygon fill="none" stroke="#29235c" stroke-width="2" points="886.32,-1407.96 886.32,-1709.96 1219.32,-1709.96 1219.32,-1407.96 886.32,-1407.96"/>
</g>
<!-- users&#45;&gt;memory_test -->
<!-- users&#45;&gt;memory_test -->
<g id="edge4" class="edge">
<title>users:e&#45;&gt;memory_test:w</title>
<path fill="none" stroke="#29235c" stroke-width="3" d="M612.21,-1170.96C819.97,-1170.96 680.37,-1546.18 876.59,-1558.64"/>
<polygon fill="#29235c" stroke="#29235c" stroke-width="3" points="876.72,-1562.15 886.82,-1558.96 876.93,-1555.15 876.72,-1562.15"/>
<text text-anchor="middle" x="880.6" y="-1568.56" font-family="Helvetica,sans-Serif" font-size="32.00" fill="#29235c">*</text>
<text text-anchor="middle" x="603.32" y="-1142.16" font-family="Helvetica,sans-Serif" font-size="32.00" fill="#29235c">1</text>
</g>
<!-- users&#45;&gt;memory_test -->
<!-- users&#45;&gt;memory_test -->
<g id="edge14" class="edge">
<title>users:e&#45;&gt;memory_test:w</title>
<path fill="none" stroke="#29235c" stroke-width="3" d="M612.21,-990.96C913.42,-990.96 589.63,-1604.93 876.8,-1618.72"/>
<polygon fill="#29235c" stroke="#29235c" stroke-width="3" points="876.74,-1622.22 886.82,-1618.96 876.9,-1615.23 876.74,-1622.22"/>
<text text-anchor="middle" x="877.93" y="-1628.56" font-family="Helvetica,sans-Serif" font-size="32.00" fill="#29235c">1</text>
<text text-anchor="middle" x="603.32" y="-1000.56" font-family="Helvetica,sans-Serif" font-size="32.00" fill="#29235c">1</text>
</g>
<!-- sequence_memory -->
<g id="sequence_memory" class="node">
<title>sequence_memory</title>
<ellipse fill="none" stroke="black" stroke-width="0" cx="1052.82" cy="-1110.96" rx="298.3" ry="214.92"/>
<polygon fill="#1d71b8" stroke="transparent" points="843.82,-1200.96 843.82,-1260.96 1261.82,-1260.96 1261.82,-1200.96 843.82,-1200.96"/>
<polygon fill="none" stroke="#29235c" points="843.82,-1200.96 843.82,-1260.96 1261.82,-1260.96 1261.82,-1200.96 843.82,-1200.96"/>
<text text-anchor="start" x="854.54" y="-1222.16" font-family="Helvetica,sans-Serif" font-weight="bold" font-size="32.00" fill="#ffffff"> &#160;&#160;&#160;&#160;&#160;&#160;sequence_memory &#160;&#160;&#160;&#160;&#160;&#160;</text>
<polygon fill="#e7e2dd" stroke="transparent" points="843.82,-1140.96 843.82,-1200.96 1261.82,-1200.96 1261.82,-1140.96 843.82,-1140.96"/>
<polygon fill="none" stroke="#29235c" points="843.82,-1140.96 843.82,-1200.96 1261.82,-1200.96 1261.82,-1140.96 843.82,-1140.96"/>
<text text-anchor="start" x="854.82" y="-1162.16" font-family="Helvetica,sans-Serif" font-weight="bold" font-size="32.00" fill="#29235c">id</text>
<text text-anchor="start" x="879.71" y="-1162.16" font-family="Helvetica,sans-Serif" font-size="32.00" fill="#29235c"> &#160;&#160;&#160;</text>
<text text-anchor="start" x="1153.02" y="-1162.16" font-family="Helvetica,sans-Serif" font-style="italic" font-size="32.00" fill="#29235c">integer</text>
<polygon fill="#e7e2dd" stroke="transparent" points="843.82,-1080.96 843.82,-1140.96 1261.82,-1140.96 1261.82,-1080.96 843.82,-1080.96"/>
<polygon fill="none" stroke="#29235c" points="843.82,-1080.96 843.82,-1140.96 1261.82,-1140.96 1261.82,-1080.96 843.82,-1080.96"/>
<text text-anchor="start" x="854.82" y="-1101.16" font-family="Helvetica,sans-Serif" font-size="32.00" fill="#29235c">user_id &#160;&#160;&#160;</text>
<text text-anchor="start" x="1113.93" y="-1102.16" font-family="Helvetica,sans-Serif" font-style="italic" font-size="32.00" fill="#29235c">integer</text>
<text text-anchor="start" x="1211.73" y="-1102.16" font-family="Helvetica,sans-Serif" font-size="32.00" fill="#29235c"> </text>
<text text-anchor="start" x="1220.62" y="-1102.16" font-family="Helvetica,sans-Serif" font-weight="bold" font-size="32.00" fill="#29235c">(!)</text>
<polygon fill="#e7e2dd" stroke="transparent" points="843.82,-1020.96 843.82,-1080.96 1261.82,-1080.96 1261.82,-1020.96 843.82,-1020.96"/>
<polygon fill="none" stroke="#29235c" points="843.82,-1020.96 843.82,-1080.96 1261.82,-1080.96 1261.82,-1020.96 843.82,-1020.96"/>
<text text-anchor="start" x="854.82" y="-1041.16" font-family="Helvetica,sans-Serif" font-size="32.00" fill="#29235c">score &#160;&#160;&#160;</text>
<text text-anchor="start" x="1113.93" y="-1042.16" font-family="Helvetica,sans-Serif" font-style="italic" font-size="32.00" fill="#29235c">integer</text>
<text text-anchor="start" x="1211.73" y="-1042.16" font-family="Helvetica,sans-Serif" font-size="32.00" fill="#29235c"> </text>
<text text-anchor="start" x="1220.62" y="-1042.16" font-family="Helvetica,sans-Serif" font-weight="bold" font-size="32.00" fill="#29235c">(!)</text>
<polygon fill="#e7e2dd" stroke="transparent" points="843.82,-960.96 843.82,-1020.96 1261.82,-1020.96 1261.82,-960.96 843.82,-960.96"/>
<polygon fill="none" stroke="#29235c" points="843.82,-960.96 843.82,-1020.96 1261.82,-1020.96 1261.82,-960.96 843.82,-960.96"/>
<text text-anchor="start" x="854.82" y="-981.16" font-family="Helvetica,sans-Serif" font-size="32.00" fill="#29235c">timestamp &#160;&#160;&#160;</text>
<text text-anchor="start" x="1151.29" y="-982.16" font-family="Helvetica,sans-Serif" font-style="italic" font-size="32.00" fill="#29235c">time</text>
<text text-anchor="start" x="1211.73" y="-982.16" font-family="Helvetica,sans-Serif" font-size="32.00" fill="#29235c"> </text>
<text text-anchor="start" x="1220.62" y="-982.16" font-family="Helvetica,sans-Serif" font-weight="bold" font-size="32.00" fill="#29235c">(!)</text>
<polygon fill="none" stroke="#29235c" stroke-width="2" points="842.82,-959.96 842.82,-1261.96 1262.82,-1261.96 1262.82,-959.96 842.82,-959.96"/>
</g>
<!-- users&#45;&gt;sequence_memory -->
<!-- users&#45;&gt;sequence_memory -->
<g id="edge6" class="edge">
<title>users:e&#45;&gt;sequence_memory:w</title>
<path fill="none" stroke="#29235c" stroke-width="3" d="M612.21,-1170.96C714.6,-1170.96 735.57,-1114.88 832.55,-1111.15"/>
<polygon fill="#29235c" stroke="#29235c" stroke-width="3" points="832.89,-1114.65 842.82,-1110.96 832.76,-1107.65 832.89,-1114.65"/>
<text text-anchor="middle" x="836.6" y="-1120.56" font-family="Helvetica,sans-Serif" font-size="32.00" fill="#29235c">*</text>
<text text-anchor="middle" x="621.1" y="-1180.56" font-family="Helvetica,sans-Serif" font-size="32.00" fill="#29235c">1</text>
</g>
<!-- users&#45;&gt;sequence_memory -->
<!-- users&#45;&gt;sequence_memory -->
<g id="edge16" class="edge">
<title>users:e&#45;&gt;sequence_memory:w</title>
<path fill="none" stroke="#29235c" stroke-width="3" d="M612.21,-930.96C756.67,-930.96 697.83,-1159.84 832.76,-1170.57"/>
<polygon fill="#29235c" stroke="#29235c" stroke-width="3" points="832.69,-1174.07 842.82,-1170.96 832.96,-1167.08 832.69,-1174.07"/>
<text text-anchor="middle" x="833.93" y="-1180.56" font-family="Helvetica,sans-Serif" font-size="32.00" fill="#29235c">1</text>
<text text-anchor="middle" x="603.32" y="-940.56" font-family="Helvetica,sans-Serif" font-size="32.00" fill="#29235c">1</text>
</g>
<!-- aim_trainer -->
<g id="aim_trainer" class="node">
<title>aim_trainer</title>
<ellipse fill="none" stroke="black" stroke-width="0" cx="1052.82" cy="-662.96" rx="219.41" ry="214.92"/>
<polygon fill="#1d71b8" stroke="transparent" points="899.82,-752.96 899.82,-812.96 1205.82,-812.96 1205.82,-752.96 899.82,-752.96"/>
<polygon fill="none" stroke="#29235c" points="899.82,-752.96 899.82,-812.96 1205.82,-812.96 1205.82,-752.96 899.82,-752.96"/>
<text text-anchor="start" x="910.57" y="-774.16" font-family="Helvetica,sans-Serif" font-weight="bold" font-size="32.00" fill="#ffffff"> &#160;&#160;&#160;&#160;&#160;&#160;aim_trainer &#160;&#160;&#160;&#160;&#160;&#160;</text>
<polygon fill="#e7e2dd" stroke="transparent" points="899.82,-692.96 899.82,-752.96 1205.82,-752.96 1205.82,-692.96 899.82,-692.96"/>
<polygon fill="none" stroke="#29235c" points="899.82,-692.96 899.82,-752.96 1205.82,-752.96 1205.82,-692.96 899.82,-692.96"/>
<text text-anchor="start" x="910.82" y="-714.16" font-family="Helvetica,sans-Serif" font-weight="bold" font-size="32.00" fill="#29235c">id</text>
<text text-anchor="start" x="935.71" y="-714.16" font-family="Helvetica,sans-Serif" font-size="32.00" fill="#29235c"> &#160;&#160;&#160;</text>
<text text-anchor="start" x="1097.02" y="-714.16" font-family="Helvetica,sans-Serif" font-style="italic" font-size="32.00" fill="#29235c">integer</text>
<polygon fill="#e7e2dd" stroke="transparent" points="899.82,-632.96 899.82,-692.96 1205.82,-692.96 1205.82,-632.96 899.82,-632.96"/>
<polygon fill="none" stroke="#29235c" points="899.82,-632.96 899.82,-692.96 1205.82,-692.96 1205.82,-632.96 899.82,-632.96"/>
<text text-anchor="start" x="910.82" y="-653.16" font-family="Helvetica,sans-Serif" font-size="32.00" fill="#29235c">user_id &#160;&#160;&#160;</text>
<text text-anchor="start" x="1057.93" y="-654.16" font-family="Helvetica,sans-Serif" font-style="italic" font-size="32.00" fill="#29235c">integer</text>
<text text-anchor="start" x="1155.73" y="-654.16" font-family="Helvetica,sans-Serif" font-size="32.00" fill="#29235c"> </text>
<text text-anchor="start" x="1164.62" y="-654.16" font-family="Helvetica,sans-Serif" font-weight="bold" font-size="32.00" fill="#29235c">(!)</text>
<polygon fill="#e7e2dd" stroke="transparent" points="899.82,-572.96 899.82,-632.96 1205.82,-632.96 1205.82,-572.96 899.82,-572.96"/>
<polygon fill="none" stroke="#29235c" points="899.82,-572.96 899.82,-632.96 1205.82,-632.96 1205.82,-572.96 899.82,-572.96"/>
<text text-anchor="start" x="910.82" y="-593.16" font-family="Helvetica,sans-Serif" font-size="32.00" fill="#29235c">score &#160;&#160;&#160;</text>
<text text-anchor="start" x="1057.93" y="-594.16" font-family="Helvetica,sans-Serif" font-style="italic" font-size="32.00" fill="#29235c">integer</text>
<text text-anchor="start" x="1155.73" y="-594.16" font-family="Helvetica,sans-Serif" font-size="32.00" fill="#29235c"> </text>
<text text-anchor="start" x="1164.62" y="-594.16" font-family="Helvetica,sans-Serif" font-weight="bold" font-size="32.00" fill="#29235c">(!)</text>
<polygon fill="#e7e2dd" stroke="transparent" points="899.82,-512.96 899.82,-572.96 1205.82,-572.96 1205.82,-512.96 899.82,-512.96"/>
<polygon fill="none" stroke="#29235c" points="899.82,-512.96 899.82,-572.96 1205.82,-572.96 1205.82,-512.96 899.82,-512.96"/>
<text text-anchor="start" x="910.82" y="-533.16" font-family="Helvetica,sans-Serif" font-size="32.00" fill="#29235c">timestamp &#160;&#160;&#160;</text>
<text text-anchor="start" x="1095.29" y="-534.16" font-family="Helvetica,sans-Serif" font-style="italic" font-size="32.00" fill="#29235c">time</text>
<text text-anchor="start" x="1155.73" y="-534.16" font-family="Helvetica,sans-Serif" font-size="32.00" fill="#29235c"> </text>
<text text-anchor="start" x="1164.62" y="-534.16" font-family="Helvetica,sans-Serif" font-weight="bold" font-size="32.00" fill="#29235c">(!)</text>
<polygon fill="none" stroke="#29235c" stroke-width="2" points="898.82,-511.96 898.82,-813.96 1206.82,-813.96 1206.82,-511.96 898.82,-511.96"/>
</g>
<!-- users&#45;&gt;aim_trainer -->
<!-- users&#45;&gt;aim_trainer -->
<g id="edge8" class="edge">
<title>users:e&#45;&gt;aim_trainer:w</title>
<path fill="none" stroke="#29235c" stroke-width="3" d="M612.21,-1170.96C753.37,-1170.96 684.47,-1009.57 754.42,-886.96 811.39,-787.09 782.21,-670.04 888.79,-663.27"/>
<polygon fill="#29235c" stroke="#29235c" stroke-width="3" points="888.93,-666.77 898.82,-662.96 888.72,-659.77 888.93,-666.77"/>
<text text-anchor="middle" x="892.6" y="-672.56" font-family="Helvetica,sans-Serif" font-size="32.00" fill="#29235c">*</text>
<text text-anchor="middle" x="621.1" y="-1142.16" font-family="Helvetica,sans-Serif" font-size="32.00" fill="#29235c">1</text>
</g>
<!-- users&#45;&gt;aim_trainer -->
<!-- users&#45;&gt;aim_trainer -->
<g id="edge18" class="edge">
<title>users:e&#45;&gt;aim_trainer:w</title>
<path fill="none" stroke="#29235c" stroke-width="3" d="M612.21,-870.96C752.07,-870.96 755.38,-730.1 888.57,-723.22"/>
<polygon fill="#29235c" stroke="#29235c" stroke-width="3" points="888.91,-726.71 898.82,-722.96 888.73,-719.72 888.91,-726.71"/>
<text text-anchor="middle" x="889.93" y="-732.56" font-family="Helvetica,sans-Serif" font-size="32.00" fill="#29235c">1</text>
<text text-anchor="middle" x="603.32" y="-880.56" font-family="Helvetica,sans-Serif" font-size="32.00" fill="#29235c">1</text>
</g>
<!-- typing_test -->
<g id="typing_test" class="node">
<title>typing_test</title>
<ellipse fill="none" stroke="black" stroke-width="0" cx="1052.82" cy="-214.96" rx="217.58" ry="214.92"/>
<polygon fill="#1d71b8" stroke="transparent" points="900.82,-304.96 900.82,-364.96 1204.82,-364.96 1204.82,-304.96 900.82,-304.96"/>
<polygon fill="none" stroke="#29235c" points="900.82,-304.96 900.82,-364.96 1204.82,-364.96 1204.82,-304.96 900.82,-304.96"/>
<text text-anchor="start" x="913.21" y="-326.16" font-family="Helvetica,sans-Serif" font-weight="bold" font-size="32.00" fill="#ffffff"> &#160;&#160;&#160;&#160;&#160;&#160;typing_test &#160;&#160;&#160;&#160;&#160;&#160;</text>
<polygon fill="#e7e2dd" stroke="transparent" points="900.82,-244.96 900.82,-304.96 1204.82,-304.96 1204.82,-244.96 900.82,-244.96"/>
<polygon fill="none" stroke="#29235c" points="900.82,-244.96 900.82,-304.96 1204.82,-304.96 1204.82,-244.96 900.82,-244.96"/>
<text text-anchor="start" x="911.82" y="-266.16" font-family="Helvetica,sans-Serif" font-weight="bold" font-size="32.00" fill="#29235c">id</text>
<text text-anchor="start" x="936.71" y="-266.16" font-family="Helvetica,sans-Serif" font-size="32.00" fill="#29235c"> &#160;&#160;&#160;</text>
<text text-anchor="start" x="1096.02" y="-266.16" font-family="Helvetica,sans-Serif" font-style="italic" font-size="32.00" fill="#29235c">integer</text>
<polygon fill="#e7e2dd" stroke="transparent" points="900.82,-184.96 900.82,-244.96 1204.82,-244.96 1204.82,-184.96 900.82,-184.96"/>
<polygon fill="none" stroke="#29235c" points="900.82,-184.96 900.82,-244.96 1204.82,-244.96 1204.82,-184.96 900.82,-184.96"/>
<text text-anchor="start" x="911.82" y="-205.16" font-family="Helvetica,sans-Serif" font-size="32.00" fill="#29235c">user_id &#160;&#160;&#160;</text>
<text text-anchor="start" x="1056.93" y="-206.16" font-family="Helvetica,sans-Serif" font-style="italic" font-size="32.00" fill="#29235c">integer</text>
<text text-anchor="start" x="1154.73" y="-206.16" font-family="Helvetica,sans-Serif" font-size="32.00" fill="#29235c"> </text>
<text text-anchor="start" x="1163.62" y="-206.16" font-family="Helvetica,sans-Serif" font-weight="bold" font-size="32.00" fill="#29235c">(!)</text>
<polygon fill="#e7e2dd" stroke="transparent" points="900.82,-124.96 900.82,-184.96 1204.82,-184.96 1204.82,-124.96 900.82,-124.96"/>
<polygon fill="none" stroke="#29235c" points="900.82,-124.96 900.82,-184.96 1204.82,-184.96 1204.82,-124.96 900.82,-124.96"/>
<text text-anchor="start" x="911.82" y="-145.16" font-family="Helvetica,sans-Serif" font-size="32.00" fill="#29235c">score &#160;&#160;&#160;</text>
<text text-anchor="start" x="1094.26" y="-146.16" font-family="Helvetica,sans-Serif" font-style="italic" font-size="32.00" fill="#29235c">float</text>
<text text-anchor="start" x="1154.73" y="-146.16" font-family="Helvetica,sans-Serif" font-size="32.00" fill="#29235c"> </text>
<text text-anchor="start" x="1163.62" y="-146.16" font-family="Helvetica,sans-Serif" font-weight="bold" font-size="32.00" fill="#29235c">(!)</text>
<polygon fill="#e7e2dd" stroke="transparent" points="900.82,-64.96 900.82,-124.96 1204.82,-124.96 1204.82,-64.96 900.82,-64.96"/>
<polygon fill="none" stroke="#29235c" points="900.82,-64.96 900.82,-124.96 1204.82,-124.96 1204.82,-64.96 900.82,-64.96"/>
<text text-anchor="start" x="911.75" y="-85.16" font-family="Helvetica,sans-Serif" font-size="32.00" fill="#29235c">timestamp &#160;&#160;&#160;</text>
<text text-anchor="start" x="1094.56" y="-86.16" font-family="Helvetica,sans-Serif" font-style="italic" font-size="32.00" fill="#29235c">time</text>
<text text-anchor="start" x="1154.99" y="-86.16" font-family="Helvetica,sans-Serif" font-size="32.00" fill="#29235c"> </text>
<text text-anchor="start" x="1163.88" y="-86.16" font-family="Helvetica,sans-Serif" font-weight="bold" font-size="32.00" fill="#29235c">(!)</text>
<polygon fill="none" stroke="#29235c" stroke-width="2" points="899.82,-63.96 899.82,-365.96 1205.82,-365.96 1205.82,-63.96 899.82,-63.96"/>
</g>
<!-- users&#45;&gt;typing_test -->
<!-- users&#45;&gt;typing_test -->
<g id="edge10" class="edge">
<title>users:e&#45;&gt;typing_test:w</title>
<path fill="none" stroke="#29235c" stroke-width="3" d="M612.21,-1170.96C777.92,-1170.96 692.37,-592.61 754.42,-438.96 797.56,-332.13 782.12,-221.63 889.73,-215.25"/>
<polygon fill="#29235c" stroke="#29235c" stroke-width="3" points="889.92,-218.75 899.82,-214.96 889.72,-211.75 889.92,-218.75"/>
<text text-anchor="middle" x="893.6" y="-186.16" font-family="Helvetica,sans-Serif" font-size="32.00" fill="#29235c">*</text>
<text text-anchor="middle" x="603.32" y="-1180.56" font-family="Helvetica,sans-Serif" font-size="32.00" fill="#29235c">1</text>
</g>
<!-- users&#45;&gt;typing_test -->
<!-- users&#45;&gt;typing_test -->
<g id="edge20" class="edge">
<title>users:e&#45;&gt;typing_test:w</title>
<path fill="none" stroke="#29235c" stroke-width="3" d="M612.21,-810.96C789.21,-810.96 662.62,-590.3 754.42,-438.96 803.11,-358.68 802.52,-280.8 889.64,-275.27"/>
<polygon fill="#29235c" stroke="#29235c" stroke-width="3" points="889.93,-278.77 899.82,-274.96 889.72,-271.77 889.93,-278.77"/>
<text text-anchor="middle" x="890.93" y="-246.16" font-family="Helvetica,sans-Serif" font-size="32.00" fill="#29235c">1</text>
<text text-anchor="middle" x="603.32" y="-820.56" font-family="Helvetica,sans-Serif" font-size="32.00" fill="#29235c">1</text>
</g>
</g>
</svg>
